<svg width="22" height="21" viewBox="0 0 22 21" fill="none" xmlns="http://www.w3.org/2000/svg">
<g clip-path="url(#clip0_678_4646)">
<path d="M5.30664 15.0833H4.38997C3.90374 15.0833 3.43743 14.8902 3.09361 14.5464C2.74979 14.2025 2.55664 13.7362 2.55664 13.25V4.08333C2.55664 3.5971 2.74979 3.13079 3.09361 2.78697C3.43743 2.44315 3.90374 2.25 4.38997 2.25H19.0566C19.5429 2.25 20.0092 2.44315 20.353 2.78697C20.6968 3.13079 20.89 3.5971 20.89 4.08333V13.25C20.89 13.7362 20.6968 14.2025 20.353 14.5464C20.0092 14.8902 19.5429 15.0833 19.0566 15.0833H18.14" stroke="#1D2633" stroke-width="1.83333" stroke-linecap="round" stroke-linejoin="round"/>
<path d="M11.722 13.25L16.3053 18.75H7.13867L11.722 13.25Z" stroke="#1D2633" stroke-width="1.83333" stroke-linecap="round" stroke-linejoin="round"/>
</g>
<defs>
<clipPath id="clip0_678_4646">
<rect width="22" height="20.1667" fill="white" transform="translate(0 0.416504)"/>
</clipPath>
</defs>
</svg>
